REM DIRINDEX 1\2\6,1\2\7,1\2\8,1\3\9,1\3\10,1\3\11,1\4\12,1\4\13,1\4\14,1\5\15,1\5\16,1\5\17,1\5\18
REM DIRNAME folder01,folder02,folder03,folder04,folder05,folder06,folder07,folder08,folder09,folder10,folder11,folder12,folder13,folder14,folder15,folder16,folder17,folder18
TITLE ""
FILE "" MP3
  TRACK 01 AUDIO
    TITLE "16:cjc019_6225"
    INDEX 01 00:00:00
  TRACK 02 AUDIO
    TITLE "0:"
    INDEX 01 00:01:13
  TRACK 03 AUDIO
    TITLE "18:cjc019_6226"
    INDEX 01 00:01:68
  TRACK 04 AUDIO
    TITLE "0:"
    INDEX 01 00:05:10
  TRACK 05 AUDIO
    TITLE "17:cjc019_6227"
    INDEX 01 00:05:59
  TRACK 06 AUDIO
    TITLE "0:"
    INDEX 01 00:07:11
  TRACK 07 AUDIO
    TITLE "16:cjc019_6228"
    INDEX 01 00:08:62
  TRACK 08 AUDIO
    TITLE "0:"
    INDEX 01 00:10:04
  TRACK 09 AUDIO
    TITLE "18:cjc019_6229"
    INDEX 01 00:10:63
  TRACK 10 AUDIO
    TITLE "0:"
    INDEX 01 00:13:30
  TRACK 11 AUDIO
    TITLE "17:cjc019_6230"
    INDEX 01 00:14:11
  TRACK 12 AUDIO
    TITLE "0:"
    INDEX 01 00:15:27
  TRACK 13 AUDIO
    TITLE "16:cjc019_6231"
    INDEX 01 00:17:18
  TRACK 14 AUDIO
    TITLE "0:"
    INDEX 01 00:18:52
  TRACK 15 AUDIO
    TITLE "18:cjc019_6232"
    INDEX 01 00:19:32
  TRACK 16 AUDIO
    TITLE "0:"
    INDEX 01 00:20:18
  TRACK 17 AUDIO
    TITLE "17:cjc019_6233"
    INDEX 01 00:21:00
  TRACK 18 AUDIO
    TITLE "0:"
    INDEX 01 00:22:34
  TRACK 19 AUDIO
    TITLE "16:cjc019_6234"
    INDEX 01 00:24:14
  TRACK 20 AUDIO
    TITLE "0:"
    INDEX 01 00:25:33
  TRACK 21 AUDIO
    TITLE "18:cjc019_6235"
    INDEX 01 00:26:09
  TRACK 22 AUDIO
    TITLE "0:"
    INDEX 01 00:29:48
  TRACK 23 AUDIO
    TITLE "17:cjc019_6236"
    INDEX 01 00:30:30
  TRACK 24 AUDIO
    TITLE "0:"
    INDEX 01 00:31:51
  TRACK 25 AUDIO
    TITLE "16:cjc019_6237"
    INDEX 01 00:33:34
  TRACK 26 AUDIO
    TITLE "0:"
    INDEX 01 00:34:61
  TRACK 27 AUDIO
    TITLE "18:cjc019_6238"
    INDEX 01 00:35:41
  TRACK 28 AUDIO
    TITLE "0:"
    INDEX 01 00:37:38
  TRACK 29 AUDIO
    TITLE "17:cjc019_6239"
    INDEX 01 00:38:22
  TRACK 30 AUDIO
    TITLE "0:"
    INDEX 01 00:39:45
  TRACK 31 AUDIO
    TITLE "16:cjc019_6240"
    INDEX 01 00:41:28
  TRACK 32 AUDIO
    TITLE "0:"
    INDEX 01 00:42:35
  TRACK 33 AUDIO
    TITLE "18:cjc019_6241"
    INDEX 01 00:43:23
  TRACK 34 AUDIO
    TITLE "0:"
    INDEX 01 00:46:43
  TRACK 35 AUDIO
    TITLE "17:cjc019_6242"
    INDEX 01 00:47:23
  TRACK 36 AUDIO
    TITLE "0:"
    INDEX 01 00:48:30
  TRACK 37 AUDIO
    TITLE "16:cjc019_6243"
    INDEX 01 00:50:21
  TRACK 38 AUDIO
    TITLE "0:"
    INDEX 01 00:51:34
  TRACK 39 AUDIO
    TITLE "18:cjc019_6244"
    INDEX 01 00:52:16
  TRACK 40 AUDIO
    TITLE "0:"
    INDEX 01 00:54:23
  TRACK 41 AUDIO
    TITLE "17:cjc019_6245"
    INDEX 01 00:55:03
  TRACK 42 AUDIO
    TITLE "0:"
    INDEX 01 00:56:08
  TRACK 43 AUDIO
    TITLE "16:cjc019_6246"
    INDEX 01 00:57:62
  TRACK 44 AUDIO
    TITLE "0:"
    INDEX 01 00:59:14
  TRACK 45 AUDIO
    TITLE "18:cjc019_6247"
    INDEX 01 00:59:71
  TRACK 46 AUDIO
    TITLE "0:"
    INDEX 01 01:02:46
  TRACK 47 AUDIO
    TITLE "17:cjc019_6248"
    INDEX 01 01:03:26
  TRACK 48 AUDIO
    TITLE "0:"
    INDEX 01 01:04:52
  TRACK 49 AUDIO
    TITLE "16:cjc019_6249"
    INDEX 01 01:06:28
  TRACK 50 AUDIO
    TITLE "0:"
    INDEX 01 01:07:41
  TRACK 51 AUDIO
    TITLE "18:cjc019_6250"
    INDEX 01 01:08:29
  TRACK 52 AUDIO
    TITLE "0:"
    INDEX 01 01:12:15
  TRACK 53 AUDIO
    TITLE "17:cjc019_6251"
    INDEX 01 01:12:66
  TRACK 54 AUDIO
    TITLE "0:"
    INDEX 01 01:14:08
  TRACK 55 AUDIO
    TITLE "16:cjc019_6252"
    INDEX 01 01:15:70
  TRACK 56 AUDIO
    TITLE "0:"
    INDEX 01 01:17:35
  TRACK 57 AUDIO
    TITLE "18:cjc019_6253"
    INDEX 01 01:18:11
  TRACK 58 AUDIO
    TITLE "0:"
    INDEX 01 01:19:19
  TRACK 59 AUDIO
    TITLE "17:cjc019_6254"
    INDEX 01 01:19:68
  TRACK 60 AUDIO
    TITLE "0:"
    INDEX 01 01:21:35
  TRACK 61 AUDIO
    TITLE "16:cjc019_6255"
    INDEX 01 01:23:22
  TRACK 62 AUDIO
    TITLE "0:"
    INDEX 01 01:24:37
  TRACK 63 AUDIO
    TITLE "18:cjc019_6256"
    INDEX 01 01:25:19
  TRACK 64 AUDIO
    TITLE "0:"
    INDEX 01 01:26:32
  TRACK 65 AUDIO
    TITLE "17:cjc019_6257"
    INDEX 01 01:27:14
  TRACK 66 AUDIO
    TITLE "0:"
    INDEX 01 01:28:29
  TRACK 67 AUDIO
    TITLE "16:cjc019_6258"
    INDEX 01 01:30:13
  TRACK 68 AUDIO
    TITLE "0:"
    INDEX 01 01:31:30
  TRACK 69 AUDIO
    TITLE "18:cjc019_6259"
    INDEX 01 01:32:06
  TRACK 70 AUDIO
    TITLE "0:"
    INDEX 01 01:34:20
  TRACK 71 AUDIO
    TITLE "17:cjc019_6260"
    INDEX 01 01:34:63
  TRACK 72 AUDIO
    TITLE "0:"
    INDEX 01 01:36:07
  TRACK 73 AUDIO
    TITLE "16:cjc019_6261"
    INDEX 01 01:37:68
  TRACK 74 AUDIO
    TITLE "0:"
    INDEX 01 01:39:10
  TRACK 75 AUDIO
    TITLE "18:cjc019_6262"
    INDEX 01 01:39:70
  TRACK 76 AUDIO
    TITLE "0:"
    INDEX 01 01:43:56
  TRACK 77 AUDIO
    TITLE "17:cjc019_6263"
    INDEX 01 01:44:34
  TRACK 78 AUDIO
    TITLE "0:"
    INDEX 01 01:45:55
  TRACK 79 AUDIO
    TITLE "16:cjc019_6264"
    INDEX 01 01:47:39
  TRACK 80 AUDIO
    TITLE "0:"
    INDEX 01 01:48:60
  TRACK 81 AUDIO
    TITLE "18:cjc019_6265"
    INDEX 01 01:49:39
  TRACK 82 AUDIO
    TITLE "0:"
    INDEX 01 01:50:39
  TRACK 83 AUDIO
    TITLE "17:cjc019_6266"
    INDEX 01 01:51:23
  TRACK 84 AUDIO
    TITLE "0:"
    INDEX 01 01:52:42
  TRACK 85 AUDIO
    TITLE "16:cjc019_6267"
    INDEX 01 01:54:19
  TRACK 86 AUDIO
    TITLE "0:"
    INDEX 01 01:55:44
  TRACK 87 AUDIO
    TITLE "18:cjc019_6268"
    INDEX 01 01:56:24
  TRACK 88 AUDIO
    TITLE "0:"
    INDEX 01 01:58:56
  TRACK 89 AUDIO
    TITLE "17:cjc019_6269"
    INDEX 01 01:59:36
  TRACK 90 AUDIO
    TITLE "0:"
    INDEX 01 02:00:59
  TRACK 91 AUDIO
    TITLE "16:cjc019_6270"
    INDEX 01 02:02:46
  TRACK 92 AUDIO
    TITLE "0:"
    INDEX 01 02:03:71
  TRACK 93 AUDIO
    TITLE "18:cjc019_6271"
    INDEX 01 02:04:55
  TRACK 94 AUDIO
    TITLE "0:"
    INDEX 01 02:05:72
  TRACK 95 AUDIO
    TITLE "17:cjc019_6272"
    INDEX 01 02:06:52
  TRACK 96 AUDIO
    TITLE "0:"
    INDEX 01 02:08:09
  TRACK 97 AUDIO
    TITLE "16:cjc019_6273"
    INDEX 01 02:09:64
  TRACK 98 AUDIO
    TITLE "0:"
    INDEX 01 02:11:08
  TRACK 99 AUDIO
    TITLE "18:cjc019_6274"
    INDEX 01 02:11:66
  TRACK 100 AUDIO
    TITLE "0:"
    INDEX 01 02:12:70
  TRACK 101 AUDIO
    TITLE "17:cjc019_6275"
    INDEX 01 02:13:50
  TRACK 102 AUDIO
    TITLE "0:"
    INDEX 01 02:15:02
  TRACK 103 AUDIO
    TITLE "16:cjc019_6276"
    INDEX 01 02:16:60
  TRACK 104 AUDIO
    TITLE "0:"
    INDEX 01 02:18:08
  TRACK 105 AUDIO
    TITLE "18:cjc019_6277"
    INDEX 01 02:18:66
  TRACK 106 AUDIO
    TITLE "0:"
    INDEX 01 02:22:17
  TRACK 107 AUDIO
    TITLE "17:cjc019_6278"
    INDEX 01 02:22:72
  TRACK 108 AUDIO
    TITLE "0:"
    INDEX 01 02:24:24
